<?xml version="1.0" encoding="UTF-8" standalone="no"?>
<!DOCTYPE svg PUBLIC "-//W3C//DTD SVG 1.1//EN"
 "http://www.w3.org/Graphics/SVG/1.1/DTD/svg11.dtd">
<!-- Generated by graphviz version 2.43.0 (0)
 -->
<!-- Title: Level 2: Basic numerical algorithms Pages: 1 -->
<svg width="283pt" height="124pt"
 viewBox="0.00 0.00 283.00 123.50" xmlns="http://www.w3.org/2000/svg" xmlns:xlink="http://www.w3.org/1999/xlink">
<g id="graph0" class="graph" transform="scale(1 1) rotate(0) translate(4 119.5)">
<title>Level 2: Basic numerical algorithms</title>
<!-- Node4 -->
<g id="node1" class="node">
<title>Node4</title>
<g id="a_node1"><a xlink:href="group__matrixfunctionapproximation.html" target="_top" xlink:title=" ">
<polygon fill="none" stroke="black" points="260.5,-115.5 174.5,-115.5 174.5,-96.5 260.5,-96.5 260.5,-115.5"/>
<text text-anchor="middle" x="217.5" y="-103.5" font-family="Helvetica,sans-Serif" font-size="10.00">Matrix&#45;functions</text>
</a>
</g>
</g>
<!-- Node2 -->
<g id="node2" class="node">
<title>Node2</title>
<g id="a_node2"><a xlink:href="group__matrixinvert.html" target="_top" xlink:title=" ">
<polygon fill="none" stroke="black" points="275,-78 160,-78 160,-48 275,-48 275,-78"/>
<text text-anchor="start" x="168" y="-66" font-family="Helvetica,sans-Serif" font-size="10.00">Inversion of tridiagonal</text>
<text text-anchor="middle" x="217.5" y="-55" font-family="Helvetica,sans-Serif" font-size="10.00"> matrices</text>
</a>
</g>
</g>
<!-- Node1 -->
<g id="node3" class="node">
<title>Node1</title>
<g id="a_node3"><a xlink:title=" ">
<polygon fill="#bfbfbf" stroke="black" points="124,-78 0,-78 0,-48 124,-48 124,-78"/>
<text text-anchor="start" x="8" y="-66" font-family="Helvetica,sans-Serif" font-size="10.00">Level 2: Basic numerical</text>
<text text-anchor="middle" x="62" y="-55" font-family="Helvetica,sans-Serif" font-size="10.00"> algorithms</text>
</a>
</g>
</g>
<!-- Node1&#45;&gt;Node4 -->
<g id="edge3" class="edge">
<title>Node1&#45;&gt;Node4</title>
<path fill="none" stroke="black" d="M126.54,-80.8C145.64,-86.15 165.86,-91.81 182.28,-96.41"/>
<polygon fill="black" stroke="black" points="127.26,-77.37 116.69,-78.04 125.37,-84.11 127.26,-77.37"/>
</g>
<!-- Node1&#45;&gt;Node2 -->
<g id="edge1" class="edge">
<title>Node1&#45;&gt;Node2</title>
<path fill="none" stroke="black" d="M134.36,-63C142.82,-63 151.37,-63 159.59,-63"/>
<polygon fill="black" stroke="black" points="134.11,-59.5 124.11,-63 134.11,-66.5 134.11,-59.5"/>
</g>
<!-- Node3 -->
<g id="node4" class="node">
<title>Node3</title>
<g id="a_node4"><a xlink:href="group__tridiagfunction.html" target="_top" xlink:title=" ">
<polygon fill="none" stroke="black" points="264.5,-30 170.5,-30 170.5,0 264.5,0 264.5,-30"/>
<text text-anchor="start" x="178.5" y="-18" font-family="Helvetica,sans-Serif" font-size="10.00">Tridiagonal Matrix</text>
<text text-anchor="middle" x="217.5" y="-7" font-family="Helvetica,sans-Serif" font-size="10.00">&#45;functions</text>
</a>
</g>
</g>
<!-- Node1&#45;&gt;Node3 -->
<g id="edge2" class="edge">
<title>Node1&#45;&gt;Node3</title>
<path fill="none" stroke="black" d="M121.11,-44.83C137.39,-39.74 154.87,-34.27 170.36,-29.43"/>
<polygon fill="black" stroke="black" points="119.65,-41.62 111.15,-47.94 121.74,-48.3 119.65,-41.62"/>
</g>
</g>
</svg>
